<svg width="16" height="16" viewBox="0 0 16 16" fill="none" xmlns="http://www.w3.org/2000/svg">
<mask id="mask0_1382_42480" style="mask-type:alpha" maskUnits="userSpaceOnUse" x="0" y="0" width="16" height="16">
<rect x="0.705872" y="0.5" width="15" height="15" fill="#D9D9D9"/>
</mask>
<g mask="url(#mask0_1382_42480)">
<path d="M3.83087 14.25C3.48712 14.25 3.19275 14.1277 2.94775 13.8831C2.70316 13.6381 2.58087 13.3437 2.58087 13V4.25C2.58087 3.90625 2.70316 3.61208 2.94775 3.3675C3.19275 3.1225 3.48712 3 3.83087 3H4.45587V1.75H5.70587V3H10.7059V1.75H11.9559V3H12.5809C12.9246 3 13.219 3.1225 13.464 3.3675C13.7086 3.61208 13.8309 3.90625 13.8309 4.25V13C13.8309 13.3437 13.7086 13.6381 13.464 13.8831C13.219 14.1277 12.9246 14.25 12.5809 14.25H3.83087ZM3.83087 13H12.5809V6.75H3.83087V13ZM3.83087 5.5H12.5809V4.25H3.83087V5.5ZM8.20587 9.25C8.02879 9.25 7.88046 9.19 7.76087 9.07C7.64087 8.95042 7.58087 8.80208 7.58087 8.625C7.58087 8.44792 7.64087 8.29937 7.76087 8.17937C7.88046 8.05979 8.02879 8 8.20587 8C8.38296 8 8.5315 8.05979 8.6515 8.17937C8.77108 8.29937 8.83087 8.44792 8.83087 8.625C8.83087 8.80208 8.77108 8.95042 8.6515 9.07C8.5315 9.19 8.38296 9.25 8.20587 9.25ZM5.70587 9.25C5.52879 9.25 5.38025 9.19 5.26025 9.07C5.14066 8.95042 5.08087 8.80208 5.08087 8.625C5.08087 8.44792 5.14066 8.29937 5.26025 8.17937C5.38025 8.05979 5.52879 8 5.70587 8C5.88295 8 6.0315 8.05979 6.1515 8.17937C6.27108 8.29937 6.33087 8.44792 6.33087 8.625C6.33087 8.80208 6.27108 8.95042 6.1515 9.07C6.0315 9.19 5.88295 9.25 5.70587 9.25ZM10.7059 9.25C10.5288 9.25 10.3805 9.19 10.2609 9.07C10.1409 8.95042 10.0809 8.80208 10.0809 8.625C10.0809 8.44792 10.1409 8.29937 10.2609 8.17937C10.3805 8.05979 10.5288 8 10.7059 8C10.883 8 11.0313 8.05979 11.1509 8.17937C11.2709 8.29937 11.3309 8.44792 11.3309 8.625C11.3309 8.80208 11.2709 8.95042 11.1509 9.07C11.0313 9.19 10.883 9.25 10.7059 9.25ZM8.20587 11.75C8.02879 11.75 7.88046 11.69 7.76087 11.57C7.64087 11.4504 7.58087 11.3021 7.58087 11.125C7.58087 10.9479 7.64087 10.7996 7.76087 10.68C7.88046 10.56 8.02879 10.5 8.20587 10.5C8.38296 10.5 8.5315 10.56 8.6515 10.68C8.77108 10.7996 8.83087 10.9479 8.83087 11.125C8.83087 11.3021 8.77108 11.4504 8.6515 11.57C8.5315 11.69 8.38296 11.75 8.20587 11.75ZM5.70587 11.75C5.52879 11.75 5.38025 11.69 5.26025 11.57C5.14066 11.4504 5.08087 11.3021 5.08087 11.125C5.08087 10.9479 5.14066 10.7996 5.26025 10.68C5.38025 10.56 5.52879 10.5 5.70587 10.5C5.88295 10.5 6.0315 10.56 6.1515 10.68C6.27108 10.7996 6.33087 10.9479 6.33087 11.125C6.33087 11.3021 6.27108 11.4504 6.1515 11.57C6.0315 11.69 5.88295 11.75 5.70587 11.75ZM10.7059 11.75C10.5288 11.75 10.3805 11.69 10.2609 11.57C10.1409 11.4504 10.0809 11.3021 10.0809 11.125C10.0809 10.9479 10.1409 10.7996 10.2609 10.68C10.3805 10.56 10.5288 10.5 10.7059 10.5C10.883 10.5 11.0313 10.56 11.1509 10.68C11.2709 10.7996 11.3309 10.9479 11.3309 11.125C11.3309 11.3021 11.2709 11.4504 11.1509 11.57C11.0313 11.69 10.883 11.75 10.7059 11.75Z" fill="#F7F7F7"/>
</g>
</svg>
