<svg width="15" height="16" viewBox="0 0 15 16" fill="none" xmlns="http://www.w3.org/2000/svg">
<mask id="mask0_1382_42475" style="mask-type:alpha" maskUnits="userSpaceOnUse" x="0" y="0" width="15" height="16">
<rect y="0.5" width="15" height="15" fill="#D9D9D9"/>
</mask>
<g mask="url(#mask0_1382_42475)">
<path d="M0.625 13V11.25C0.625 10.8958 0.71625 10.5702 0.89875 10.2731C1.08083 9.97646 1.32292 9.75 1.625 9.59375C2.27083 9.27083 2.92708 9.02854 3.59375 8.86688C4.26042 8.70563 4.9375 8.625 5.625 8.625C6.3125 8.625 6.98958 8.70563 7.65625 8.86688C8.32292 9.02854 8.97917 9.27083 9.625 9.59375C9.92708 9.75 10.1692 9.97646 10.3512 10.2731C10.5338 10.5702 10.625 10.8958 10.625 11.25V13H0.625ZM11.875 13V11.125C11.875 10.6667 11.7475 10.2265 11.4925 9.80438C11.2371 9.38271 10.875 9.02083 10.4062 8.71875C10.9375 8.78125 11.4375 8.88792 11.9062 9.03875C12.375 9.19 12.8125 9.375 13.2188 9.59375C13.5938 9.80208 13.8802 10.0337 14.0781 10.2887C14.276 10.5442 14.375 10.8229 14.375 11.125V13H11.875ZM5.625 8C4.9375 8 4.34896 7.75521 3.85938 7.26562C3.36979 6.77604 3.125 6.1875 3.125 5.5C3.125 4.8125 3.36979 4.22396 3.85938 3.73438C4.34896 3.24479 4.9375 3 5.625 3C6.3125 3 6.90104 3.24479 7.39062 3.73438C7.88021 4.22396 8.125 4.8125 8.125 5.5C8.125 6.1875 7.88021 6.77604 7.39062 7.26562C6.90104 7.75521 6.3125 8 5.625 8ZM11.875 5.5C11.875 6.1875 11.6302 6.77604 11.1406 7.26562C10.651 7.75521 10.0625 8 9.375 8C9.26042 8 9.11458 7.98708 8.9375 7.96125C8.76042 7.935 8.61458 7.90625 8.5 7.875C8.78125 7.54167 8.99729 7.17187 9.14812 6.76562C9.29937 6.35937 9.375 5.9375 9.375 5.5C9.375 5.0625 9.29937 4.64062 9.14812 4.23438C8.99729 3.82812 8.78125 3.45833 8.5 3.125C8.64583 3.07292 8.79167 3.03896 8.9375 3.02313C9.08333 3.00771 9.22917 3 9.375 3C10.0625 3 10.651 3.24479 11.1406 3.73438C11.6302 4.22396 11.875 4.8125 11.875 5.5ZM1.875 11.75H9.375V11.25C9.375 11.1354 9.34646 11.0313 9.28938 10.9375C9.23188 10.8438 9.15625 10.7708 9.0625 10.7188C8.5 10.4375 7.93229 10.2265 7.35938 10.0856C6.78646 9.94521 6.20833 9.875 5.625 9.875C5.04167 9.875 4.46354 9.94521 3.89062 10.0856C3.31771 10.2265 2.75 10.4375 2.1875 10.7188C2.09375 10.7708 2.01833 10.8438 1.96125 10.9375C1.90375 11.0313 1.875 11.1354 1.875 11.25V11.75ZM5.625 6.75C5.96875 6.75 6.26312 6.6275 6.50813 6.3825C6.75271 6.13792 6.875 5.84375 6.875 5.5C6.875 5.15625 6.75271 4.86208 6.50813 4.6175C6.26312 4.3725 5.96875 4.25 5.625 4.25C5.28125 4.25 4.98708 4.3725 4.7425 4.6175C4.4975 4.86208 4.375 5.15625 4.375 5.5C4.375 5.84375 4.4975 6.13792 4.7425 6.3825C4.98708 6.6275 5.28125 6.75 5.625 6.75Z" fill="#F7F7F7"/>
</g>
</svg>
