<svg width="16" height="16" viewBox="0 0 16 16" fill="none" xmlns="http://www.w3.org/2000/svg">
<mask id="mask0_1382_42485" style="mask-type:alpha" maskUnits="userSpaceOnUse" x="0" y="0" width="16" height="16">
<rect x="0.411774" y="0.5" width="15" height="15" fill="#D9D9D9"/>
</mask>
<g mask="url(#mask0_1382_42485)">
<path d="M7.34927 12.375H8.44302V11.5937C8.96386 11.5 9.41177 11.2969 9.78677 10.9844C10.1618 10.6719 10.3493 10.2083 10.3493 9.59375C10.3493 9.15625 10.2243 8.75521 9.97427 8.39062C9.72427 8.02604 9.22427 7.70833 8.47427 7.4375C7.84927 7.22917 7.41698 7.04687 7.1774 6.89062C6.93781 6.73438 6.81802 6.52083 6.81802 6.25C6.81802 5.97917 6.91448 5.76562 7.1074 5.60937C7.2999 5.45312 7.57844 5.375 7.94302 5.375C8.27636 5.375 8.53677 5.45583 8.72427 5.6175C8.91177 5.77875 9.04719 5.97917 9.13052 6.21875L10.1305 5.8125C10.0159 5.44792 9.80511 5.13021 9.49802 4.85937C9.19052 4.58854 8.84927 4.4375 8.47427 4.40625V3.625H7.38052V4.40625C6.85969 4.52083 6.45344 4.75 6.16177 5.09375C5.87011 5.4375 5.72427 5.82292 5.72427 6.25C5.72427 6.73958 5.86761 7.13542 6.15427 7.4375C6.44052 7.73958 6.89094 8 7.50552 8.21875C8.16177 8.45833 8.61761 8.67187 8.87302 8.85937C9.12802 9.04687 9.25552 9.29167 9.25552 9.59375C9.25552 9.9375 9.13302 10.19 8.88802 10.3512C8.64344 10.5129 8.34927 10.5937 8.00552 10.5937C7.66177 10.5937 7.35719 10.4869 7.09177 10.2731C6.82594 10.0598 6.63052 9.73958 6.50552 9.3125L5.47427 9.71875C5.62011 10.2187 5.84677 10.6225 6.15427 10.93C6.46136 11.2371 6.85969 11.4479 7.34927 11.5625V12.375ZM7.91177 14.25C7.04719 14.25 6.23469 14.0858 5.47427 13.7575C4.71386 13.4296 4.0524 12.9844 3.4899 12.4219C2.9274 11.8594 2.48219 11.1979 2.15427 10.4375C1.82594 9.67708 1.66177 8.86458 1.66177 8C1.66177 7.13542 1.82594 6.32292 2.15427 5.5625C2.48219 4.80208 2.9274 4.14062 3.4899 3.57812C4.0524 3.01562 4.71386 2.57021 5.47427 2.24187C6.23469 1.91396 7.04719 1.75 7.91177 1.75C8.77636 1.75 9.58886 1.91396 10.3493 2.24187C11.1097 2.57021 11.7711 3.01562 12.3336 3.57812C12.8961 4.14062 13.3414 4.80208 13.6693 5.5625C13.9976 6.32292 14.1618 7.13542 14.1618 8C14.1618 8.86458 13.9976 9.67708 13.6693 10.4375C13.3414 11.1979 12.8961 11.8594 12.3336 12.4219C11.7711 12.9844 11.1097 13.4296 10.3493 13.7575C9.58886 14.0858 8.77636 14.25 7.91177 14.25ZM7.91177 13C9.30761 13 10.4899 12.5156 11.4586 11.5469C12.4274 10.5781 12.9118 9.39583 12.9118 8C12.9118 6.60417 12.4274 5.42187 11.4586 4.45312C10.4899 3.48437 9.30761 3 7.91177 3C6.51594 3 5.33365 3.48437 4.3649 4.45312C3.39615 5.42187 2.91177 6.60417 2.91177 8C2.91177 9.39583 3.39615 10.5781 4.3649 11.5469C5.33365 12.5156 6.51594 13 7.91177 13Z" fill="#F7F7F7"/>
</g>
</svg>
