<svg width="12" height="13" viewBox="0 0 12 13" fill="none" xmlns="http://www.w3.org/2000/svg">
<mask id="mask0_736_30811" style="mask-type:alpha" maskUnits="userSpaceOnUse" x="0" y="0" width="12" height="13">
<rect x="3.05176e-05" y="0.93103" width="12" height="12" fill="#D9D9D9"/>
</mask>
<g mask="url(#mask0_736_30811)">
<path d="M5.99996 11.431C5.44163 11.431 4.9208 11.3268 4.43746 11.1185C3.95413 10.9101 3.5313 10.6248 3.16897 10.2625C2.8063 9.89979 2.5208 9.47679 2.31247 8.99346C2.10414 8.51012 1.99997 7.98929 1.99997 7.43096H2.49997C2.49997 8.40596 2.83963 9.23296 3.51897 9.91195C4.19797 10.5913 5.02496 10.931 5.99996 10.931C6.97496 10.931 7.80196 10.5913 8.48096 9.91195C9.16029 9.23296 9.49995 8.40596 9.49995 7.43096C9.49995 6.45596 9.16029 5.6288 8.48096 4.94946C7.80196 4.27047 6.97496 3.93097 5.99996 3.93097H5.81246L6.62496 4.74346L6.27496 5.10596L4.84996 3.66847L6.28746 2.24347L6.63746 2.59347L5.81246 3.43097H5.99996C6.55829 3.43097 7.07913 3.53513 7.56246 3.74347C8.04579 3.9518 8.46879 4.23713 8.83146 4.59946C9.19379 4.96213 9.47912 5.38513 9.68745 5.86846C9.89579 6.35179 9.99995 6.87263 9.99995 7.43096C9.99995 7.98929 9.89579 8.51012 9.68745 8.99346C9.47912 9.47679 9.19379 9.89979 8.83146 10.2625C8.46879 10.6248 8.04579 10.9101 7.56246 11.1185C7.07913 11.3268 6.55829 11.431 5.99996 11.431Z" fill="#2D3527" fill-opacity="0.5"/>
</g>
</svg>
