<svg width="49" height="47" viewBox="0 0 49 47" fill="none" xmlns="http://www.w3.org/2000/svg">
<rect width="49" height="47" rx="23.5" fill="#2D3527"/>
<path d="M30.2 30.25L25.475 25.525C25.1 25.825 24.6687 26.0625 24.1812 26.2375C23.6937 26.4125 23.175 26.5 22.625 26.5C21.2625 26.5 20.1095 26.0282 19.166 25.0847C18.222 24.1407 17.75 22.9875 17.75 21.625C17.75 20.2625 18.222 19.1093 19.166 18.1653C20.1095 17.2218 21.2625 16.75 22.625 16.75C23.9875 16.75 25.1407 17.2218 26.0847 18.1653C27.0282 19.1093 27.5 20.2625 27.5 21.625C27.5 22.175 27.4125 22.6937 27.2375 23.1812C27.0625 23.6687 26.825 24.1 26.525 24.475L31.25 29.2L30.2 30.25ZM22.625 25C23.5625 25 24.3595 24.672 25.016 24.016C25.672 23.3595 26 22.5625 26 21.625C26 20.6875 25.672 19.8905 25.016 19.234C24.3595 18.578 23.5625 18.25 22.625 18.25C21.6875 18.25 20.8905 18.578 20.234 19.234C19.578 19.8905 19.25 20.6875 19.25 21.625C19.25 22.5625 19.578 23.3595 20.234 24.016C20.8905 24.672 21.6875 25 22.625 25Z" fill="#A6FF35"/>
</svg>
