<svg width="25" height="25" viewBox="0 0 25 25" fill="none" xmlns="http://www.w3.org/2000/svg">
<mask id="mask0_1667_42037" style="mask-type:alpha" maskUnits="userSpaceOnUse" x="0" y="0" width="25" height="25">
<rect width="25" height="25" fill="#D9D9D9"/>
</mask>
<g mask="url(#mask0_1667_42037)">
<path d="M6.09373 17.8125C6.97915 17.1355 7.96873 16.6016 9.06248 16.211C10.1562 15.8204 11.3021 15.625 12.5 15.625C13.6979 15.625 14.8437 15.8204 15.9375 16.211C17.0312 16.6016 18.0208 17.1355 18.9062 17.8125C19.5139 17.1007 19.987 16.2934 20.3255 15.3907C20.664 14.4879 20.8333 13.5243 20.8333 12.5C20.8333 10.191 20.0217 8.22487 18.3984 6.6016C16.7752 4.97834 14.809 4.16671 12.5 4.16671C10.191 4.16671 8.22481 4.97834 6.60154 6.6016C4.97828 8.22487 4.16665 10.191 4.16665 12.5C4.16665 13.5243 4.33592 14.4879 4.67446 15.3907C5.013 16.2934 5.48609 17.1007 6.09373 17.8125ZM12.5 13.5417C11.4757 13.5417 10.612 13.1901 9.90883 12.487C9.20571 11.7839 8.85415 10.9202 8.85415 9.89587C8.85415 8.87157 9.20571 8.00785 9.90883 7.30473C10.612 6.6016 11.4757 6.25004 12.5 6.25004C13.5243 6.25004 14.388 6.6016 15.0911 7.30473C15.7943 8.00785 16.1458 8.87157 16.1458 9.89587C16.1458 10.9202 15.7943 11.7839 15.0911 12.487C14.388 13.1901 13.5243 13.5417 12.5 13.5417ZM12.5 22.9167C11.059 22.9167 9.70484 22.6433 8.43748 22.0964C7.17012 21.5495 6.06769 20.8073 5.13019 19.8698C4.19269 18.9323 3.4505 17.8299 2.90363 16.5625C2.35675 15.2952 2.08331 13.941 2.08331 12.5C2.08331 11.0591 2.35675 9.7049 2.90363 8.43754C3.4505 7.17018 4.19269 6.06775 5.13019 5.13025C6.06769 4.19275 7.17012 3.45056 8.43748 2.90369C9.70484 2.35681 11.059 2.08337 12.5 2.08337C13.941 2.08337 15.2951 2.35681 16.5625 2.90369C17.8298 3.45056 18.9323 4.19275 19.8698 5.13025C20.8073 6.06775 21.5495 7.17018 22.0963 8.43754C22.6432 9.7049 22.9166 11.0591 22.9166 12.5C22.9166 13.941 22.6432 15.2952 22.0963 16.5625C21.5495 17.8299 20.8073 18.9323 19.8698 19.8698C18.9323 20.8073 17.8298 21.5495 16.5625 22.0964C15.2951 22.6433 13.941 22.9167 12.5 22.9167ZM12.5 20.8334C13.4201 20.8334 14.2882 20.6988 15.1041 20.4297C15.9201 20.1606 16.6666 19.7743 17.3437 19.2709C16.6666 18.7674 15.9201 18.3811 15.1041 18.112C14.2882 17.8429 13.4201 17.7084 12.5 17.7084C11.5798 17.7084 10.7118 17.8429 9.89581 18.112C9.07984 18.3811 8.33331 18.7674 7.65623 19.2709C8.33331 19.7743 9.07984 20.1606 9.89581 20.4297C10.7118 20.6988 11.5798 20.8334 12.5 20.8334ZM12.5 11.4584C12.9514 11.4584 13.3246 11.3108 13.6198 11.0157C13.9149 10.7205 14.0625 10.3473 14.0625 9.89587C14.0625 9.44449 13.9149 9.07122 13.6198 8.77608C13.3246 8.48094 12.9514 8.33337 12.5 8.33337C12.0486 8.33337 11.6753 8.48094 11.3802 8.77608C11.085 9.07122 10.9375 9.44449 10.9375 9.89587C10.9375 10.3473 11.085 10.7205 11.3802 11.0157C11.6753 11.3108 12.0486 11.4584 12.5 11.4584Z" fill="#2D3527" fill-opacity="1"/>
</g>
</svg>
