<svg width="26" height="25" viewBox="0 0 26 25" fill="none" xmlns="http://www.w3.org/2000/svg">
<mask id="mask0_1667_42032" style="mask-type:alpha" maskUnits="userSpaceOnUse" x="0" y="0" width="26" height="25">
<rect x="0.666656" width="25" height="25" fill="#D9D9D9"/>
</mask>
<g mask="url(#mask0_1667_42032)">
<path d="M13.1667 10.4167H18.375V8.33333H13.1667V10.4167ZM13.1667 16.6667H18.375V14.5833H13.1667V16.6667ZM10.0417 11.4583C10.6146 11.4583 11.105 11.2543 11.513 10.8464C11.921 10.4384 12.125 9.94792 12.125 9.375C12.125 8.80208 11.921 8.31163 11.513 7.90365C11.105 7.49566 10.6146 7.29167 10.0417 7.29167C9.46874 7.29167 8.97829 7.49566 8.5703 7.90365C8.16232 8.31163 7.95832 8.80208 7.95832 9.375C7.95832 9.94792 8.16232 10.4384 8.5703 10.8464C8.97829 11.2543 9.46874 11.4583 10.0417 11.4583ZM10.0417 17.7083C10.6146 17.7083 11.105 17.5043 11.513 17.0964C11.921 16.6884 12.125 16.1979 12.125 15.625C12.125 15.0521 11.921 14.5616 11.513 14.1536C11.105 13.7457 10.6146 13.5417 10.0417 13.5417C9.46874 13.5417 8.97829 13.7457 8.5703 14.1536C8.16232 14.5616 7.95832 15.0521 7.95832 15.625C7.95832 16.1979 8.16232 16.6884 8.5703 17.0964C8.97829 17.5043 9.46874 17.7083 10.0417 17.7083ZM5.87499 21.875C5.30207 21.875 4.81162 21.671 4.40364 21.263C3.99565 20.855 3.79166 20.3646 3.79166 19.7917V5.20833C3.79166 4.63542 3.99565 4.14497 4.40364 3.73698C4.81162 3.32899 5.30207 3.125 5.87499 3.125H20.4583C21.0312 3.125 21.5217 3.32899 21.9297 3.73698C22.3377 4.14497 22.5417 4.63542 22.5417 5.20833V19.7917C22.5417 20.3646 22.3377 20.855 21.9297 21.263C21.5217 21.671 21.0312 21.875 20.4583 21.875H5.87499ZM5.87499 19.7917H20.4583V5.20833H5.87499V19.7917Z" fill="#2D3527" fill-opacity="1"/>
</g>
</svg>
