<svg width="26" height="25" viewBox="0 0 26 25" fill="none" xmlns="http://www.w3.org/2000/svg">
<mask id="mask0_1667_42027" style="mask-type:alpha" maskUnits="userSpaceOnUse" x="0" y="0" width="26" height="25">
<rect x="0.333313" width="25" height="25" fill="#D9D9D9"/>
</mask>
<g mask="url(#mask0_1667_42027)">
<path d="M11.0625 20.625C11.8437 19.0452 12.8854 17.9905 14.1875 17.461C15.4896 16.9315 16.6007 16.6667 17.5208 16.6667C17.9201 16.6667 18.3108 16.7014 18.6927 16.7709C19.0746 16.8403 19.4479 16.9271 19.8125 17.0313C20.2292 16.3716 20.559 15.6598 20.8021 14.8959C21.0451 14.132 21.1667 13.3334 21.1667 12.5C21.1667 10.1737 20.3594 8.20317 18.7448 6.58858C17.1302 4.974 15.1597 4.16671 12.8333 4.16671C10.5069 4.16671 8.53645 4.974 6.92187 6.58858C5.30728 8.20317 4.49999 10.1737 4.49999 12.5C4.49999 13.2813 4.59982 14.0278 4.79947 14.7396C4.99912 15.4514 5.2986 16.1112 5.69791 16.7188C6.40971 16.3716 7.14756 16.1025 7.91145 15.9115C8.67534 15.7205 9.44791 15.625 10.2292 15.625C10.7847 15.625 11.3186 15.6728 11.8307 15.7683C12.3429 15.8638 12.8507 15.9896 13.3542 16.1459C12.9549 16.3542 12.5772 16.5973 12.2213 16.875C11.8654 17.1528 11.5312 17.448 11.2187 17.7605C11.0104 17.7257 10.8325 17.7084 10.6849 17.7084H10.2292C9.6736 17.7084 9.12239 17.7691 8.57551 17.8907C8.02864 18.0122 7.50346 18.1945 6.99999 18.4375C7.55555 18.9931 8.17621 19.4575 8.86197 19.8308C9.54773 20.204 10.2812 20.4688 11.0625 20.625ZM12.8333 22.9167C11.3924 22.9167 10.0382 22.6433 8.77082 22.0964C7.50346 21.5495 6.40103 20.8073 5.46353 19.8698C4.52603 18.9323 3.78384 17.8299 3.23697 16.5625C2.69009 15.2952 2.41666 13.941 2.41666 12.5C2.41666 11.0591 2.69009 9.7049 3.23697 8.43754C3.78384 7.17018 4.52603 6.06775 5.46353 5.13025C6.40103 4.19275 7.50346 3.45056 8.77082 2.90369C10.0382 2.35681 11.3924 2.08337 12.8333 2.08337C14.2743 2.08337 15.6285 2.35681 16.8958 2.90369C18.1632 3.45056 19.2656 4.19275 20.2031 5.13025C21.1406 6.06775 21.8828 7.17018 22.4297 8.43754C22.9766 9.7049 23.25 11.0591 23.25 12.5C23.25 13.941 22.9766 15.2952 22.4297 16.5625C21.8828 17.8299 21.1406 18.9323 20.2031 19.8698C19.2656 20.8073 18.1632 21.5495 16.8958 22.0964C15.6285 22.6433 14.2743 22.9167 12.8333 22.9167ZM10.2292 14.0625C9.22221 14.0625 8.36284 13.7066 7.65103 12.9948C6.93923 12.283 6.58332 11.4237 6.58332 10.4167C6.58332 9.40976 6.93923 8.55039 7.65103 7.83858C8.36284 7.12678 9.22221 6.77087 10.2292 6.77087C11.2361 6.77087 12.0955 7.12678 12.8073 7.83858C13.5191 8.55039 13.875 9.40976 13.875 10.4167C13.875 11.4237 13.5191 12.283 12.8073 12.9948C12.0955 13.7066 11.2361 14.0625 10.2292 14.0625ZM10.2292 11.9792C10.6632 11.9792 11.0321 11.8273 11.3359 11.5235C11.6397 11.2197 11.7917 10.8507 11.7917 10.4167C11.7917 9.98268 11.6397 9.61376 11.3359 9.30994C11.0321 9.00612 10.6632 8.85421 10.2292 8.85421C9.79513 8.85421 9.42621 9.00612 9.12239 9.30994C8.81857 9.61376 8.66666 9.98268 8.66666 10.4167C8.66666 10.8507 8.81857 11.2197 9.12239 11.5235C9.42621 11.8273 9.79513 11.9792 10.2292 11.9792ZM17.5208 15.1042C16.7917 15.1042 16.1753 14.8525 15.6719 14.349C15.1684 13.8455 14.9167 13.2292 14.9167 12.5C14.9167 11.7709 15.1684 11.1546 15.6719 10.6511C16.1753 10.1476 16.7917 9.89587 17.5208 9.89587C18.25 9.89587 18.8663 10.1476 19.3698 10.6511C19.8733 11.1546 20.125 11.7709 20.125 12.5C20.125 13.2292 19.8733 13.8455 19.3698 14.349C18.8663 14.8525 18.25 15.1042 17.5208 15.1042Z" fill="#2D3527" fill-opacity="1"/>
</g>
</svg>
